<svg xmlns="http://www.w3.org/2000/svg" viewBox="0 0 150 150" role="img" aria-label="Loop">
  <defs>
    <linearGradient id="lp-a" x1="86.95" x2="99.19" y1="60.6" y2="48.36" gradientTransform="matrix(1 0 0 -1 0 152)" gradientUnits="userSpaceOnUse">
      <stop stop-color="#DF342F" offset="0"/>
      <stop stop-color="#F04C36" offset="1"/>
    </linearGradient>
    <linearGradient id="lp-b" x1="52.57" x2="116" y1="51.07" y2="51.07" gradientUnits="userSpaceOnUse">
      <stop stop-color="#FF7CB3" offset="0"/>
      <stop stop-color="#FF4CAC" offset="1"/>
    </linearGradient>
    <linearGradient id="lp-c" x1="18.36" x2="84.15" y1="80.1" y2="80.1" gradientUnits="userSpaceOnUse">
      <stop stop-color="#A247F7" offset="0"/>
      <stop stop-color="#8239E0" offset="1"/>
    </linearGradient>
    <linearGradient id="lp-d" x1="18.36" x2="84.15" y1="92.68" y2="92.68" gradientUnits="userSpaceOnUse">
      <stop stop-color="#C052F9" offset="0"/>
      <stop stop-color="#8239E0" offset="1"/>
    </linearGradient>
    <linearGradient id="lp-e" x1="52.17" x2="52.17" y1="89.01" y2="78.33" gradientUnits="userSpaceOnUse">
      <stop stop-color="#FF8787" offset="0"/>
      <stop stop-color="#F94379" offset="1"/>
    </linearGradient>
    <linearGradient id="lp-f" x1="48.08" x2="52.5" y1="69.89" y2="64.01" gradientTransform="matrix(1 0 0 -1 0 152)" gradientUnits="userSpaceOnUse">
      <stop stop-color="#F94379" offset="0"/>
      <stop stop-color="#FF7C81" offset="1"/>
    </linearGradient>
  </defs>

  <!-- Soft drop shadow -->
  <path d="m113.7 75.5c2.8-5.5 6.3-14.5 6.3-25.5 0-14.3-8.1-33-27.7-33-15.5 0-30.3 13.4-41.2 34.2l-1.1 2.3c-19.9-0.8-35 11.1-35 29.6 0 14.4 8.4 35.6 34.4 35.9 10.8 0 21.5-3.3 33-10.5 8.2 4.6 19.4 9.9 33.1 10.5 13.5 0.4 19.5-6.9 19.5-16.6-0.6-10.5-10.1-20.9-21.3-26.9z" fill="#231F20" opacity=".1"/>
  <!-- White loop body -->
  <path d="m111.9 75c2.7-5.5 6.5-14.3 6.5-26.9-0.5-14.1-8.3-31.1-26.1-31.1-15.2 0-28.3 11.5-39 29.7l-2.9 6.8c-19.6-0.8-34.8 11.1-34.8 29.6 0.8 18.4 11.5 34.9 33.8 34.9 10.8 0 21.5-3.3 33-10.8 8.2 4.6 19.4 10.7 33.4 10.9 11.1 0.3 18.9-5.2 18.9-16.6-0.6-10.2-10.1-20-22.8-26.5z" fill="#fff"/>
  <!-- Orange tail -->
  <path d="m108.3 76.3c-2.2 4.1-7 10.8-12.3 16.1-3.4 3.5-8.2 7.8-13.6 11.5 8.8 5.5 20.2 11.6 33.3 11.8 10.9 0 16.8-5 16.3-14.9-0.6-9.9-11.7-19.1-23.7-24.5z" fill="#FD6130"/>
  <path d="m102.4 83.6c-4.8 6.8-11.8 13.4-20 20.3 2.5 1.4 4.6 2.7 7.4 4.6 8.1-2.7 14.5-10.6 14.4-17.9 0-2.7-0.5-4.9-1.8-7z" fill="url(#lp-a)"/>
  <!-- Pink upper sweep -->
  <path d="m92.3 19.7c-14.4 0-27.8 11.4-37.7 30.9l-2.2 5.7 19.3 5c4.3-6.7 13.2-16.7 20.2-18.6 2.5-0.3 3.8 1.2 3.8 3.6 0 8.3-10.3 22.3-16.7 28.7-7.3 7.5-22.2 18.9-38.1 21.7l8.5 19c28.2 0 46.3-18.2 53.2-28.6 5.7-7.4 13.2-20.3 13.2-37.1 0-12.1-6.2-30.3-23.5-30.3z" fill="url(#lp-b)"/>
  <path d="m52.7 54.9 5.4 2.2 13.6 2.8 1.4-2 7.8-9.4 7.7-5.3 4.8-0.5 2.3 3.6-4.2 11.6-6.1 8.1-9.6-3.2-23.4-6.5 0.3-1.4z" fill="#FF54A4"/>
  <!-- Purple lower loop -->
  <path d="m47.6 56.3c-17 0-27.5 11.6-28.9 21.6-0.8 12.1 7 18 21.1 16.8l4.4-0.6c-3.6-1.4-6.6-4.4-6.3-8.4 0.5-4.4 4.5-7.5 9.7-7.5 5.6 0.3 11.1 2.7 18 6.4 6.1-4 13.1-10.5 18.5-17.8-6.7-3.6-18.5-10-36.5-10.5z" fill="url(#lp-c)"/>
  <path d="m46.5 78.2c-4.8 0-8.6 3.5-8.9 8.2 0 4 3 6.3 6.6 7.7-13.3 2.6-26.6 0-25.5-16.2-0.5 2.1-0.5 4.6-0.3 7.5 1.1 12.5 10 30.3 31.3 30.3 12.7 0 26.6-4.6 34.4-11.8v-7.2-29.9c-7-3.6-19.6-8.6-33.2-10.3l-4.4 21.7z" fill="url(#lp-d)"/>
  <!-- Coral knot highlights -->
  <path d="m46.9 78.5c-0.4 2.8 0 11.5 1.3 14.6 4.2-1.2 10.2-3.7 17.2-8.2-3.3-2.1-13.3-6.7-18.5-6.4z" fill="url(#lp-e)"/>
  <path d="m46.9 84.6 0.4 7.1 0.9 1.4c3.1-0.7 8.6-3.1 12.7-5.2-3.6-1.2-8.8-2.9-14-3.3z" fill="url(#lp-f)"/>
  <!-- White specular highlight -->
  <path d="m75.6 59.9c3.1 0.8 7.5 3.3 9.8 4.7 3.6-5.2 8-13.3 7.7-18.7-1.2-2.7-11 3.7-17.5 14z" fill="#FFFFFF"/>
</svg>
